<svg width="20" height="20" viewBox="0 0 20 20" fill="none" xmlns="http://www.w3.org/2000/svg">
<rect x="1" y="1" width="18" height="18" rx="9" fill="#4CAF50"/>
<rect x="1" y="1" width="18" height="18" rx="9" stroke="white" stroke-width="2"/>
<mask id="path-2-inside-1_2013_18529" fill="white">
<path d="M8.39961 11.95L6.29961 9.84999L5.59961 10.55L8.39961 13.35L14.3996 7.34999L13.6996 6.64999L8.39961 11.95Z"/>
</mask>
<path d="M8.39961 11.95L6.29961 9.84999L5.59961 10.55L8.39961 13.35L14.3996 7.34999L13.6996 6.64999L8.39961 11.95Z" fill="black"/>
<path d="M8.39961 11.95L7.6925 12.6571L8.39961 13.3642L9.10672 12.6571L8.39961 11.95ZM6.29961 9.84999L7.00672 9.14289L6.29961 8.43578L5.5925 9.14289L6.29961 9.84999ZM5.59961 10.55L4.8925 9.84289L4.1854 10.55L4.8925 11.2571L5.59961 10.55ZM8.39961 13.35L7.6925 14.0571L8.39961 14.7642L9.10672 14.0571L8.39961 13.35ZM14.3996 7.34999L15.1067 8.0571L15.8138 7.34999L15.1067 6.64289L14.3996 7.34999ZM13.6996 6.64999L14.4067 5.94289L13.6996 5.23578L12.9925 5.94289L13.6996 6.64999ZM9.10672 11.2429L7.00672 9.14289L5.5925 10.5571L7.6925 12.6571L9.10672 11.2429ZM5.5925 9.14289L4.8925 9.84289L6.30672 11.2571L7.00672 10.5571L5.5925 9.14289ZM4.8925 11.2571L7.6925 14.0571L9.10672 12.6429L6.30672 9.84289L4.8925 11.2571ZM9.10672 14.0571L15.1067 8.0571L13.6925 6.64289L7.6925 12.6429L9.10672 14.0571ZM15.1067 6.64289L14.4067 5.94289L12.9925 7.3571L13.6925 8.0571L15.1067 6.64289ZM12.9925 5.94289L7.6925 11.2429L9.10672 12.6571L14.4067 7.3571L12.9925 5.94289Z" fill="white" mask="url(#path-2-inside-1_2013_18529)"/>
</svg>
