<svg width="212" height="200" viewBox="0 0 212 200" fill="none" xmlns="http://www.w3.org/2000/svg">
<path d="M171.958 25.5312H44.298C38.4226 25.5312 33.6597 30.2942 33.6597 36.1695V163.829C33.6597 169.704 38.4226 174.467 44.298 174.467H171.958C177.833 174.467 182.596 169.704 182.596 163.829V36.1695C182.596 30.2942 177.833 25.5312 171.958 25.5312Z" fill="#B7D1F8"/>
<g filter="url(#filter0_d_5947_26752)">
<path d="M154.936 36.168H11.3191C8.38146 36.168 6 38.5494 6 41.4871V68.0829C6 71.0205 8.38146 73.402 11.3191 73.402H154.936C157.874 73.402 160.255 71.0205 160.255 68.0829V41.4871C160.255 38.5494 157.874 36.168 154.936 36.168Z" fill="white"/>
</g>
<path d="M79.4043 44.6797H51.7447C49.9821 44.6797 48.5532 46.1086 48.5532 47.8712C48.5532 49.6338 49.9821 51.0627 51.7447 51.0627H79.4043C81.1669 51.0627 82.5958 49.6338 82.5958 47.8712C82.5958 46.1086 81.1669 44.6797 79.4043 44.6797Z" fill="#000814"/>
<path d="M98.5532 58.5078H51.7447C49.9821 58.5078 48.5532 59.9367 48.5532 61.6993C48.5532 63.4619 49.9821 64.8908 51.7447 64.8908H98.5532C100.316 64.8908 101.745 63.4619 101.745 61.6993C101.745 59.9367 100.316 58.5078 98.5532 58.5078Z" fill="white"/>
<path d="M34.7233 39.3594H14.5106C11.5729 39.3594 9.19141 41.7408 9.19141 44.6785V64.8913C9.19141 67.829 11.5729 70.2104 14.5106 70.2104H34.7233C37.661 70.2104 40.0425 67.829 40.0425 64.8913V44.6785C40.0425 41.7408 37.661 39.3594 34.7233 39.3594Z" fill="#0E66E7"/>
<path d="M22.1936 58.2743H24.3213L24.3447 57.4552C24.3447 56.3786 25.0234 56.0977 25.983 55.7935C26.9455 55.5197 27.7928 54.9399 28.3966 54.1418C29.0004 53.3438 29.328 52.3708 29.3298 51.3701C29.3509 50.7591 29.2449 50.1503 29.0185 49.5824C28.7922 49.0145 28.4504 48.4997 28.0148 48.0707C27.5792 47.6418 27.0593 47.3079 26.488 47.0902C25.9166 46.8725 25.3064 46.7758 24.6958 46.8062C24.0504 46.7922 23.409 46.9093 22.8103 47.1506C22.2117 47.3919 21.6683 47.7523 21.213 48.2099C20.7578 48.6675 20.4003 49.2128 20.1622 49.8127C19.924 50.4126 19.8102 51.0546 19.8277 51.6999H22.0277C22.0193 51.3436 22.0822 50.9893 22.2125 50.6576C22.3429 50.326 22.5381 50.0237 22.7868 49.7684C23.0355 49.5132 23.3326 49.3102 23.6608 49.1713C23.9889 49.0323 24.3415 48.9603 24.6979 48.9594C25.0192 48.9408 25.3408 48.9916 25.6408 49.1083C25.9408 49.225 26.2122 49.405 26.4364 49.6359C26.6607 49.8668 26.8326 50.1433 26.9405 50.4466C27.0484 50.7499 27.0897 51.0728 27.0617 51.3935C27.0475 51.9125 26.8671 52.4133 26.5468 52.822C26.2266 53.2307 25.7836 53.5258 25.283 53.6637L24.5106 53.9701C23.7545 54.1523 23.0943 54.6118 22.6609 55.2576C22.2274 55.9034 22.0523 56.6885 22.1702 57.4573L22.1936 58.2743ZM23.2468 63.3318C23.4552 63.3392 23.6629 63.3047 23.8577 63.2305C24.0525 63.1562 24.2304 63.0437 24.381 62.8995C24.5315 62.7553 24.6516 62.5823 24.7342 62.3909C24.8168 62.1995 24.8601 61.9934 24.8617 61.785C24.8599 61.5767 24.8163 61.3709 24.7336 61.1797C24.6509 60.9885 24.5307 60.8158 24.3802 60.6719C24.2297 60.5279 24.0518 60.4155 23.8572 60.3414C23.6625 60.2673 23.455 60.2329 23.2468 60.2403C23.0387 60.2329 22.8311 60.2673 22.6365 60.3414C22.4418 60.4155 22.2639 60.5279 22.1134 60.6719C21.9629 60.8158 21.8427 60.9885 21.76 61.1797C21.6773 61.3709 21.6338 61.5767 21.6319 61.785C21.6335 61.9934 21.6769 62.1995 21.7594 62.3909C21.842 62.5823 21.9621 62.7553 22.1127 62.8995C22.2632 63.0437 22.4412 63.1562 22.636 63.2305C22.8308 63.3047 23.0385 63.3392 23.2468 63.3318Z" fill="white"/>
<g filter="url(#filter1_d_5947_26752)">
<path d="M57.0638 81.9141H200.681C202.092 81.9141 203.444 82.4745 204.442 83.472C205.44 84.4695 206 85.8225 206 87.2332V113.829C206 115.24 205.44 116.593 204.442 117.59C203.444 118.588 202.092 119.148 200.681 119.148H57.0638C55.6531 119.148 54.3001 118.588 53.3026 117.59C52.305 116.593 51.7446 115.24 51.7446 113.829V87.2332C51.7446 85.8225 52.305 84.4695 53.3026 83.472C54.3001 82.4745 55.6531 81.9141 57.0638 81.9141V81.9141Z" fill="white"/>
</g>
<path d="M125.149 90.4258H97.4893C95.7267 90.4258 94.2979 91.8547 94.2979 93.6173C94.2979 95.3799 95.7267 96.8088 97.4893 96.8088H125.149C126.912 96.8088 128.34 95.3799 128.34 93.6173C128.34 91.8547 126.912 90.4258 125.149 90.4258Z" fill="#000814"/>
<path d="M144.298 104.254H97.4893C95.7267 104.254 94.2979 105.683 94.2979 107.445C94.2979 109.208 95.7267 110.637 97.4893 110.637H144.298C146.06 110.637 147.489 109.208 147.489 107.445C147.489 105.683 146.06 104.254 144.298 104.254Z" fill="white"/>
<path d="M80.4679 85.1055H60.2552C57.3175 85.1055 54.936 87.4869 54.936 90.4246V110.637C54.936 113.575 57.3175 115.957 60.2552 115.957H80.4679C83.4056 115.957 85.7871 113.575 85.7871 110.637V90.4246C85.7871 87.4869 83.4056 85.1055 80.4679 85.1055Z" fill="#0E66E7"/>
<path d="M67.9383 104.02H70.0659L70.0893 103.201C70.0893 102.125 70.768 101.844 71.7276 101.54C72.6902 101.266 73.5374 100.686 74.1412 99.8879C74.7451 99.0899 75.0726 98.1169 75.0744 97.1162C75.0955 96.5052 74.9895 95.8964 74.7631 95.3285C74.5368 94.7606 74.195 94.2458 73.7594 93.8168C73.3238 93.3878 72.8039 93.054 72.2326 92.8363C71.6613 92.6186 71.051 92.5219 70.4404 92.5523C69.7951 92.5383 69.1536 92.6554 68.555 92.8967C67.9563 93.138 67.4129 93.4983 66.9577 93.9559C66.5025 94.4136 66.1449 94.9588 65.9068 95.5588C65.6687 96.1587 65.5549 96.8007 65.5723 97.446H67.7723C67.7639 97.0897 67.8268 96.7354 67.9571 96.4037C68.0875 96.072 68.2827 95.7697 68.5314 95.5145C68.7801 95.2593 69.0772 95.0563 69.4054 94.9174C69.7336 94.7784 70.0862 94.7064 70.4425 94.7055C70.7639 94.6869 71.0855 94.7377 71.3855 94.8544C71.6855 94.9711 71.9568 95.1511 72.1811 95.382C72.4053 95.6129 72.5772 95.8894 72.6851 96.1927C72.793 96.4959 72.8344 96.8189 72.8063 97.1396C72.7922 97.6586 72.6117 98.1594 72.2915 98.5681C71.9712 98.9768 71.5282 99.2719 71.0276 99.4098L70.2553 99.7162C69.4991 99.8984 68.8389 100.358 68.4055 101.004C67.9721 101.65 67.797 102.435 67.9149 103.203L67.9383 104.02ZM68.9914 109.078C69.1998 109.085 69.4075 109.051 69.6023 108.977C69.7971 108.902 69.975 108.79 70.1256 108.646C70.2762 108.501 70.3963 108.328 70.4788 108.137C70.5614 107.946 70.6048 107.74 70.6063 107.531C70.6045 107.323 70.5609 107.117 70.4782 106.926C70.3955 106.735 70.2754 106.562 70.1248 106.418C69.9743 106.274 69.7965 106.162 69.6018 106.087C69.4072 106.013 69.1996 105.979 68.9914 105.986C68.7833 105.979 68.5757 106.013 68.3811 106.087C68.1864 106.162 68.0086 106.274 67.8581 106.418C67.7075 106.562 67.5874 106.735 67.5047 106.926C67.422 107.117 67.3784 107.323 67.3766 107.531C67.3781 107.74 67.4215 107.946 67.5041 108.137C67.5866 108.328 67.7067 108.501 67.8573 108.646C68.0078 108.79 68.1858 108.902 68.3806 108.977C68.5754 109.051 68.7831 109.085 68.9914 109.078Z" fill="white"/>
<g filter="url(#filter2_d_5947_26752)">
<path d="M11.3191 127.66H154.936C156.347 127.66 157.7 128.221 158.697 129.218C159.695 130.216 160.255 131.569 160.255 132.979V159.575C160.255 160.986 159.695 162.339 158.697 163.336C157.7 164.334 156.347 164.894 154.936 164.894H11.3191C9.90842 164.894 8.55548 164.334 7.55794 163.336C6.56041 162.339 6 160.986 6 159.575V132.979C6 131.569 6.56041 130.216 7.55794 129.218C8.55548 128.221 9.90842 127.66 11.3191 127.66V127.66Z" fill="white"/>
</g>
<path d="M79.4043 136.172H51.7447C49.9821 136.172 48.5532 137.601 48.5532 139.363C48.5532 141.126 49.9821 142.555 51.7447 142.555H79.4043C81.1669 142.555 82.5958 141.126 82.5958 139.363C82.5958 137.601 81.1669 136.172 79.4043 136.172Z" fill="#000814"/>
<path d="M98.5532 150H51.7447C49.9821 150 48.5532 151.429 48.5532 153.191C48.5532 154.954 49.9821 156.383 51.7447 156.383H98.5532C100.316 156.383 101.745 154.954 101.745 153.191C101.745 151.429 100.316 150 98.5532 150Z" fill="white"/>
<path d="M34.7233 130.852H14.5106C11.5729 130.852 9.19141 133.233 9.19141 136.171V156.383C9.19141 159.321 11.5729 161.703 14.5106 161.703H34.7233C37.661 161.703 40.0425 159.321 40.0425 156.383V136.171C40.0425 133.233 37.661 130.852 34.7233 130.852Z" fill="#0E66E7"/>
<path d="M22.1936 149.767H24.3213L24.3447 148.947C24.3447 147.871 25.0234 147.59 25.983 147.286C26.9455 147.012 27.7928 146.432 28.3966 145.634C29.0004 144.836 29.328 143.863 29.3298 142.862C29.3509 142.251 29.2449 141.643 29.0185 141.075C28.7922 140.507 28.4504 139.992 28.0148 139.563C27.5792 139.134 27.0593 138.8 26.488 138.582C25.9166 138.365 25.3064 138.268 24.6958 138.298C24.0504 138.284 23.409 138.402 22.8103 138.643C22.2117 138.884 21.6683 139.244 21.213 139.702C20.7578 140.16 20.4003 140.705 20.1622 141.305C19.924 141.905 19.8102 142.547 19.8277 143.192H22.0277C22.0193 142.836 22.0822 142.481 22.2125 142.15C22.3429 141.818 22.5381 141.516 22.7868 141.261C23.0355 141.005 23.3326 140.802 23.6608 140.663C23.9889 140.525 24.3415 140.453 24.6979 140.452C25.0192 140.433 25.3408 140.484 25.6408 140.6C25.9408 140.717 26.2122 140.897 26.4364 141.128C26.6607 141.359 26.8326 141.635 26.9405 141.939C27.0484 142.242 27.0897 142.565 27.0617 142.886C27.0475 143.405 26.8671 143.905 26.5468 144.314C26.2266 144.723 25.7836 145.018 25.283 145.156L24.5106 145.462C23.7545 145.644 23.0943 146.104 22.6609 146.75C22.2274 147.396 22.0523 148.181 22.1702 148.949L22.1936 149.767ZM23.2468 154.824C23.4552 154.831 23.6629 154.797 23.8577 154.723C24.0525 154.648 24.2304 154.536 24.381 154.392C24.5315 154.247 24.6516 154.075 24.7342 153.883C24.8168 153.692 24.8601 153.486 24.8617 153.277C24.8599 153.069 24.8163 152.863 24.7336 152.672C24.6509 152.481 24.5307 152.308 24.3802 152.164C24.2297 152.02 24.0518 151.908 23.8572 151.834C23.6625 151.759 23.455 151.725 23.2468 151.732C23.0387 151.725 22.8311 151.759 22.6365 151.834C22.4418 151.908 22.2639 152.02 22.1134 152.164C21.9629 152.308 21.8427 152.481 21.76 152.672C21.6773 152.863 21.6338 153.069 21.6319 153.277C21.6335 153.486 21.6769 153.692 21.7594 153.883C21.842 154.075 21.9621 154.247 22.1127 154.392C22.2632 154.536 22.4412 154.648 22.636 154.723C22.8308 154.797 23.0385 154.831 23.2468 154.824Z" fill="white"/>
<defs>
<filter id="filter0_d_5947_26752" x="0" y="33.168" width="166.255" height="49.2344" filterUnits="userSpaceOnUse" color-interpolation-filters="sRGB">
<feFlood flood-opacity="0" result="BackgroundImageFix"/>
<feColorMatrix in="SourceAlpha" type="matrix" values="0 0 0 0 0 0 0 0 0 0 0 0 0 0 0 0 0 0 127 0" result="hardAlpha"/>
<feOffset dy="3"/>
<feGaussianBlur stdDeviation="3"/>
<feColorMatrix type="matrix" values="0 0 0 0 0 0 0 0 0 0 0 0 0 0 0 0 0 0 0.161 0"/>
<feBlend mode="normal" in2="BackgroundImageFix" result="effect1_dropShadow_5947_26752"/>
<feBlend mode="normal" in="SourceGraphic" in2="effect1_dropShadow_5947_26752" result="shape"/>
</filter>
<filter id="filter1_d_5947_26752" x="45.7446" y="78.9141" width="166.255" height="49.2344" filterUnits="userSpaceOnUse" color-interpolation-filters="sRGB">
<feFlood flood-opacity="0" result="BackgroundImageFix"/>
<feColorMatrix in="SourceAlpha" type="matrix" values="0 0 0 0 0 0 0 0 0 0 0 0 0 0 0 0 0 0 127 0" result="hardAlpha"/>
<feOffset dy="3"/>
<feGaussianBlur stdDeviation="3"/>
<feColorMatrix type="matrix" values="0 0 0 0 0 0 0 0 0 0 0 0 0 0 0 0 0 0 0.161 0"/>
<feBlend mode="normal" in2="BackgroundImageFix" result="effect1_dropShadow_5947_26752"/>
<feBlend mode="normal" in="SourceGraphic" in2="effect1_dropShadow_5947_26752" result="shape"/>
</filter>
<filter id="filter2_d_5947_26752" x="0" y="124.66" width="166.255" height="49.2344" filterUnits="userSpaceOnUse" color-interpolation-filters="sRGB">
<feFlood flood-opacity="0" result="BackgroundImageFix"/>
<feColorMatrix in="SourceAlpha" type="matrix" values="0 0 0 0 0 0 0 0 0 0 0 0 0 0 0 0 0 0 127 0" result="hardAlpha"/>
<feOffset dy="3"/>
<feGaussianBlur stdDeviation="3"/>
<feColorMatrix type="matrix" values="0 0 0 0 0 0 0 0 0 0 0 0 0 0 0 0 0 0 0.161 0"/>
<feBlend mode="normal" in2="BackgroundImageFix" result="effect1_dropShadow_5947_26752"/>
<feBlend mode="normal" in="SourceGraphic" in2="effect1_dropShadow_5947_26752" result="shape"/>
</filter>
</defs>
</svg>
